<svg xmlns="http://www.w3.org/2000/svg" width="810" viewBox="0 0 810 810" height="810" version="1.0"><path fill="#FFF" d="M-81 -81H891V891H-81z"/><path fill="#FFF" d="M-81 -81H891V891H-81z"/><path fill="#EDF8F7" d="M-81 -81H891V891H-81z"/><path fill="#CCECE8" d="M 405 -1084.5 C -89.984375 -1084.5 -491.25 -683.234375 -491.25 -188.25 C -491.25 306.734375 -89.984375 708 405 708 C 899.984375 708 1301.25 306.734375 1301.25 -188.25 C 1301.25 -683.234375 899.984375 -1084.5 405 -1084.5"/><path fill="#039E8E" d="M 626.375 810.792969 C 626.375 816.332031 630.863281 820.824219 636.402344 820.824219 L 668.089844 820.824219 C 673.625 820.824219 678.117188 816.332031 678.117188 810.792969 L 669.757812 546.644531 C 669.757812 541.097656 665.269531 536.609375 659.734375 536.609375 L 644.757812 536.609375 C 639.21875 536.609375 634.730469 541.097656 634.730469 546.644531 L 626.375 810.792969"/><path fill="#197067" d="M 620.714844 426.832031 C 630.699219 472.523438 645.121094 508.1875 652.925781 506.476562 C 660.734375 504.769531 658.96875 466.339844 648.984375 420.644531 C 638.996094 374.945312 624.578125 339.289062 616.765625 340.996094 C 608.960938 342.703125 610.726562 381.132812 620.714844 426.832031"/><path fill="#197067" d="M 730.09375 506.195312 C 775.082031 518.894531 809.789062 535.429688 807.617188 543.125 C 805.449219 550.820312 767.222656 546.765625 722.238281 534.070312 C 677.25 521.367188 642.542969 504.832031 644.710938 497.132812 C 646.878906 489.441406 685.109375 493.496094 730.09375 506.195312"/><path fill="#197067" d="M 582.6875 538.453125 C 547.105469 568.785156 522.457031 598.308594 527.640625 604.394531 C 532.824219 610.480469 565.867188 590.828125 601.453125 560.5 C 637.035156 530.167969 661.679688 500.640625 656.496094 494.558594 C 651.320312 488.46875 618.273438 508.121094 582.6875 538.453125"/><path fill="#039E8E" d="M 636.035156 499.996094 C 636.035156 508.953125 643.292969 516.210938 652.246094 516.210938 C 661.195312 516.210938 668.453125 508.953125 668.453125 499.996094 C 668.453125 491.039062 661.195312 483.773438 652.246094 483.773438 C 643.292969 483.773438 636.035156 491.039062 636.035156 499.996094"/><path fill="#039E8E" d="M 427.628906 815.171875 C 427.628906 818.292969 430.15625 820.824219 433.277344 820.824219 L 451.128906 820.824219 C 454.25 820.824219 456.78125 818.292969 456.78125 815.171875 L 452.070312 666.347656 C 452.070312 663.226562 449.542969 660.695312 446.421875 660.695312 L 437.984375 660.695312 C 434.867188 660.695312 432.335938 663.226562 432.335938 666.347656 L 427.628906 815.171875"/><path fill="#197067" d="M 422.710938 599.171875 C 428.996094 624.761719 437.640625 644.636719 442.011719 643.558594 C 446.382812 642.480469 444.832031 620.867188 438.539062 595.277344 C 432.25 569.683594 423.609375 549.808594 419.238281 550.882812 C 414.867188 551.960938 416.421875 573.578125 422.710938 599.171875"/><path fill="#197067" d="M 485.46875 642.273438 C 510.992188 648.773438 530.78125 657.578125 529.667969 661.945312 C 528.558594 666.308594 506.972656 664.582031 481.449219 658.085938 C 455.925781 651.589844 436.140625 642.785156 437.25 638.414062 C 438.355469 634.050781 459.945312 635.777344 485.46875 642.273438"/><path fill="#197067" d="M 402.914062 662.59375 C 383.316406 680.195312 369.867188 697.179688 372.871094 700.53125 C 375.882812 703.886719 394.207031 692.335938 413.804688 674.738281 C 433.402344 657.132812 446.855469 640.144531 443.851562 636.792969 C 440.84375 633.4375 422.515625 644.988281 402.914062 662.59375"/><path fill="#039E8E" d="M 433.070312 640.070312 C 433.070312 645.117188 437.160156 649.203125 442.203125 649.203125 C 447.246094 649.203125 451.335938 645.117188 451.335938 640.070312 C 451.335938 635.019531 447.246094 630.929688 442.203125 630.929688 C 437.160156 630.929688 433.070312 635.019531 433.070312 640.070312"/><path fill="#197067" d="M 592.066406 464.648438 C 592.277344 464.648438 592.492188 464.628906 592.710938 464.601562 C 595.25 464.25 597.039062 461.914062 596.695312 459.367188 C 596.597656 458.613281 594.042969 440.84375 576.847656 428.375 C 561.101562 416.957031 538.710938 413.851562 510.304688 419.144531 C 441.308594 431.996094 432.269531 394.882812 432.1875 394.503906 C 431.632812 391.984375 429.132812 390.398438 426.621094 390.953125 C 424.101562 391.507812 422.511719 394.007812 423.070312 396.523438 C 423.179688 397.019531 425.914062 408.824219 438.742188 418.535156 C 455.230469 431.015625 479.882812 434.308594 512.011719 428.332031 C 537.703125 423.542969 557.621094 426.066406 571.210938 435.828125 C 585.195312 445.871094 587.425781 460.476562 587.445312 460.621094 C 587.777344 462.953125 589.777344 464.648438 592.066406 464.648438"/><path fill="#197067" d="M 493.238281 506.21875 C 493.367188 506.21875 493.496094 506.210938 493.628906 506.191406 C 495.175781 505.976562 496.261719 504.558594 496.054688 503.007812 C 495.996094 502.550781 494.441406 491.738281 483.976562 484.15625 C 474.398438 477.207031 460.78125 475.316406 443.496094 478.535156 C 401.523438 486.355469 396.027344 463.777344 395.976562 463.550781 C 395.636719 462.011719 394.117188 461.050781 392.585938 461.386719 C 391.054688 461.730469 390.085938 463.242188 390.425781 464.777344 C 390.492188 465.078125 392.15625 472.257812 399.960938 478.167969 C 409.992188 485.761719 424.988281 487.765625 444.535156 484.125 C 460.167969 481.210938 472.285156 482.75 480.550781 488.6875 C 489.058594 494.792969 490.414062 503.683594 490.425781 503.773438 C 490.628906 505.1875 491.84375 506.21875 493.238281 506.21875"/><g fill="#039E8E"><g><g><path d="M 18.859375 0.613281 C 27.265625 0.613281 32.390625 -4.917969 32.390625 -14.144531 L 32.390625 -35.875 L 29.316406 -35.875 L 29.316406 -14.296875 C 29.316406 -6.664062 25.523438 -2.410156 18.859375 -2.410156 C 12.199219 -2.410156 8.40625 -6.664062 8.40625 -14.296875 L 8.40625 -35.875 L 5.328125 -35.875 L 5.328125 -14.144531 C 5.328125 -4.917969 10.453125 0.613281 18.859375 0.613281 Z M 18.859375 0.613281" transform="translate(66.962 110.537)"/></g></g></g><g fill="#039E8E"><g><g><path d="M 14.402344 0.667969 C 20.808594 0.667969 24.855469 -2.253906 24.855469 -6.714844 C 24.855469 -10.710938 21.523438 -13.375 14.8125 -14.65625 C 8.917969 -15.785156 6.714844 -17.21875 6.714844 -19.832031 C 6.714844 -22.703125 9.378906 -24.496094 13.785156 -24.496094 C 18.398438 -24.496094 21.113281 -22.601562 21.421875 -19.117188 L 24.394531 -19.117188 C 23.984375 -24.191406 20.039062 -27.160156 13.785156 -27.160156 C 7.585938 -27.160156 3.742188 -24.394531 3.742188 -19.882812 C 3.742188 -15.835938 6.867188 -13.375 13.785156 -12.199219 C 19.421875 -11.222656 21.933594 -9.53125 21.933594 -6.765625 C 21.933594 -3.84375 19.117188 -2.050781 14.453125 -2.050781 C 9.378906 -2.050781 6.457031 -4.253906 6.148438 -7.996094 L 3.230469 -7.996094 C 3.433594 -2.714844 7.6875 0.667969 14.402344 0.667969 Z M 14.402344 0.667969" transform="translate(104.681 110.537)"/></g></g></g><g fill="#039E8E"><g><g><path d="M 16.503906 0.667969 C 22.445312 0.667969 27.265625 -2.460938 29.316406 -7.535156 L 25.984375 -7.585938 C 24.242188 -4.152344 20.808594 -2.152344 16.503906 -2.152344 C 10.609375 -2.152344 6.507812 -6.046875 5.996094 -12.042969 L 30.082031 -12.042969 C 30.289062 -21.011719 24.90625 -27.160156 16.554688 -27.160156 C 8.507812 -27.160156 2.972656 -21.472656 2.972656 -13.273438 C 2.972656 -5.023438 8.457031 0.667969 16.503906 0.667969 Z M 5.996094 -14.65625 C 6.507812 -20.5 10.660156 -24.34375 16.554688 -24.34375 C 22.34375 -24.34375 26.445312 -20.652344 27.160156 -14.65625 Z M 5.996094 -14.65625" transform="translate(132.867 110.537)"/></g></g></g><g fill="#039E8E"><g><g><path d="M 5.792969 0 L 8.917969 0 L 8.917969 -13.476562 L 18.195312 -13.476562 L 27.828125 0 L 31.570312 0 L 21.832031 -13.734375 C 27.46875 -14.707031 31.003906 -18.757812 31.003906 -24.703125 C 31.003906 -31.519531 26.289062 -35.875 19.066406 -35.875 L 5.792969 -35.875 Z M 8.917969 -16.449219 L 8.917969 -32.902344 L 18.757812 -32.902344 C 24.445312 -32.902344 27.828125 -29.777344 27.828125 -24.703125 C 27.828125 -19.578125 24.445312 -16.449219 18.757812 -16.449219 Z M 8.917969 -16.449219" transform="translate(179.554 110.537)"/></g></g></g><g fill="#039E8E"><g><g><path d="M 16.503906 0.667969 C 22.445312 0.667969 27.265625 -2.460938 29.316406 -7.535156 L 25.984375 -7.585938 C 24.242188 -4.152344 20.808594 -2.152344 16.503906 -2.152344 C 10.609375 -2.152344 6.507812 -6.046875 5.996094 -12.042969 L 30.082031 -12.042969 C 30.289062 -21.011719 24.90625 -27.160156 16.554688 -27.160156 C 8.507812 -27.160156 2.972656 -21.472656 2.972656 -13.273438 C 2.972656 -5.023438 8.457031 0.667969 16.503906 0.667969 Z M 5.996094 -14.65625 C 6.507812 -20.5 10.660156 -24.34375 16.554688 -24.34375 C 22.34375 -24.34375 26.445312 -20.652344 27.160156 -14.65625 Z M 5.996094 -14.65625" transform="translate(214.608 110.537)"/></g></g></g><g fill="#039E8E"><g><g><path d="M 5.277344 0 L 8.25 0 L 8.25 -13.734375 C 8.25 -20.039062 12.144531 -24.292969 17.730469 -24.292969 C 23.011719 -24.292969 26.289062 -20.5 26.289062 -14.402344 L 26.289062 0 L 29.261719 0 L 29.261719 -14.65625 C 29.261719 -22.292969 25.007812 -27.160156 18.089844 -27.160156 C 13.835938 -27.160156 10.148438 -25.164062 8.046875 -21.371094 L 7.789062 -26.496094 L 5.277344 -26.496094 Z M 5.277344 0" transform="translate(247.56 110.537)"/></g></g></g><g fill="#039E8E"><g><g><path d="M 16.503906 0.667969 C 22.445312 0.667969 27.265625 -2.460938 29.316406 -7.535156 L 25.984375 -7.585938 C 24.242188 -4.152344 20.808594 -2.152344 16.503906 -2.152344 C 10.609375 -2.152344 6.507812 -6.046875 5.996094 -12.042969 L 30.082031 -12.042969 C 30.289062 -21.011719 24.90625 -27.160156 16.554688 -27.160156 C 8.507812 -27.160156 2.972656 -21.472656 2.972656 -13.273438 C 2.972656 -5.023438 8.457031 0.667969 16.503906 0.667969 Z M 5.996094 -14.65625 C 6.507812 -20.5 10.660156 -24.34375 16.554688 -24.34375 C 22.34375 -24.34375 26.445312 -20.652344 27.160156 -14.65625 Z M 5.996094 -14.65625" transform="translate(281.538 110.537)"/></g></g></g><g fill="#039E8E"><g><g><path d="M 10.660156 0 L 13.53125 0 L 22.035156 -22.140625 L 25.984375 -11.839844 L 30.542969 0 L 33.414062 0 L 42.996094 -26.496094 L 39.871094 -26.496094 L 31.980469 -4.457031 L 28.238281 -14.09375 L 23.421875 -26.496094 L 20.652344 -26.496094 L 15.886719 -14.09375 L 12.144531 -4.457031 L 4.304688 -26.496094 L 1.128906 -26.496094 Z M 10.660156 0" transform="translate(314.49 110.537)"/></g></g></g><g fill="#039E8E"><g><g><path d="M 13.582031 0.410156 C 18.296875 0.410156 22.191406 -1.382812 24.496094 -4.5625 L 24.804688 0 L 27.265625 0 L 27.265625 -17.21875 C 27.265625 -23.113281 22.703125 -27.160156 16.09375 -27.160156 C 10.453125 -27.160156 6.199219 -24.085938 4.917969 -19.167969 L 7.945312 -19.167969 C 9.019531 -22.34375 12.144531 -24.394531 16.144531 -24.394531 C 21.0625 -24.394531 24.292969 -21.472656 24.292969 -17.066406 L 24.292969 -15.167969 L 12.605469 -15.167969 C 7.175781 -15.167969 3.585938 -12.199219 3.585938 -7.480469 C 3.585938 -2.613281 7.429688 0.410156 13.582031 0.410156 Z M 6.558594 -7.535156 C 6.558594 -10.558594 9.070312 -12.554688 12.710938 -12.554688 L 24.34375 -12.554688 L 24.34375 -11.429688 C 24.34375 -6.097656 19.832031 -2.253906 13.683594 -2.253906 C 9.277344 -2.253906 6.558594 -4.304688 6.558594 -7.535156 Z M 6.558594 -7.535156" transform="translate(358.614 110.537)"/></g></g></g><g fill="#039E8E"><g><g><path d="M 19.421875 0.667969 C 27.46875 0.667969 33.003906 -5.226562 33.003906 -13.273438 C 33.003906 -21.320312 27.46875 -27.160156 19.421875 -27.160156 C 14.554688 -27.160156 10.609375 -25.007812 8.25 -21.472656 L 8.25 -37.925781 L 5.277344 -37.925781 L 5.277344 0 L 7.789062 0 L 8.097656 -5.277344 C 10.402344 -1.640625 14.453125 0.667969 19.421875 0.667969 Z M 8.148438 -13.273438 C 8.148438 -19.730469 12.605469 -24.292969 19.117188 -24.292969 C 25.625 -24.292969 30.03125 -19.730469 30.03125 -13.273438 C 30.03125 -6.765625 25.625 -2.203125 19.117188 -2.203125 C 12.605469 -2.203125 8.148438 -6.765625 8.148438 -13.273438 Z M 8.148438 -13.273438" transform="translate(390.593 110.537)"/></g></g></g><g fill="#039E8E"><g><g><path d="M 5.277344 0 L 8.25 0 L 8.25 -37.925781 L 5.277344 -37.925781 Z M 5.277344 0" transform="translate(426.57 110.537)"/></g></g></g><g fill="#039E8E"><g><g><path d="M 16.503906 0.667969 C 22.445312 0.667969 27.265625 -2.460938 29.316406 -7.535156 L 25.984375 -7.585938 C 24.242188 -4.152344 20.808594 -2.152344 16.503906 -2.152344 C 10.609375 -2.152344 6.507812 -6.046875 5.996094 -12.042969 L 30.082031 -12.042969 C 30.289062 -21.011719 24.90625 -27.160156 16.554688 -27.160156 C 8.507812 -27.160156 2.972656 -21.472656 2.972656 -13.273438 C 2.972656 -5.023438 8.457031 0.667969 16.503906 0.667969 Z M 5.996094 -14.65625 C 6.507812 -20.5 10.660156 -24.34375 16.554688 -24.34375 C 22.34375 -24.34375 26.445312 -20.652344 27.160156 -14.65625 Z M 5.996094 -14.65625" transform="translate(440.099 110.537)"/></g></g></g><g fill="#039E8E"><g><g><path d="M 5.792969 0 L 27.46875 0 L 27.46875 -2.921875 L 8.917969 -2.921875 L 8.917969 -16.859375 L 25.574219 -16.859375 L 25.574219 -19.730469 L 8.917969 -19.730469 L 8.917969 -32.953125 L 26.90625 -32.953125 L 26.90625 -35.875 L 5.792969 -35.875 Z M 5.792969 0" transform="translate(486.786 110.537)"/></g></g></g><g fill="#039E8E"><g><g><path d="M 5.277344 0 L 8.25 0 L 8.25 -13.734375 C 8.25 -20.039062 12.144531 -24.292969 17.730469 -24.292969 C 23.011719 -24.292969 26.289062 -20.5 26.289062 -14.402344 L 26.289062 0 L 29.261719 0 L 29.261719 -14.65625 C 29.261719 -22.292969 25.007812 -27.160156 18.089844 -27.160156 C 13.835938 -27.160156 10.148438 -25.164062 8.046875 -21.371094 L 7.789062 -26.496094 L 5.277344 -26.496094 Z M 5.277344 0" transform="translate(517.996 110.537)"/></g></g></g><g fill="#039E8E"><g><g><path d="M 16.503906 0.667969 C 22.445312 0.667969 27.265625 -2.460938 29.316406 -7.535156 L 25.984375 -7.585938 C 24.242188 -4.152344 20.808594 -2.152344 16.503906 -2.152344 C 10.609375 -2.152344 6.507812 -6.046875 5.996094 -12.042969 L 30.082031 -12.042969 C 30.289062 -21.011719 24.90625 -27.160156 16.554688 -27.160156 C 8.507812 -27.160156 2.972656 -21.472656 2.972656 -13.273438 C 2.972656 -5.023438 8.457031 0.667969 16.503906 0.667969 Z M 5.996094 -14.65625 C 6.507812 -20.5 10.660156 -24.34375 16.554688 -24.34375 C 22.34375 -24.34375 26.445312 -20.652344 27.160156 -14.65625 Z M 5.996094 -14.65625" transform="translate(551.973 110.537)"/></g></g></g><g fill="#039E8E"><g><g><path d="M 5.277344 0 L 8.25 0 L 8.25 -12.199219 C 8.25 -20.242188 12.042969 -23.726562 17.730469 -23.726562 L 20.039062 -23.726562 L 20.039062 -26.496094 L 17.835938 -26.496094 C 12.914062 -26.496094 9.890625 -24.546875 8.097656 -20.550781 L 7.789062 -26.496094 L 5.277344 -26.496094 Z M 5.277344 0" transform="translate(584.925 110.537)"/></g></g></g><g fill="#039E8E"><g><g><path d="M 16.914062 10.917969 C 24.652344 10.917969 29.878906 6.046875 29.878906 -1.078125 L 29.878906 -26.496094 L 27.367188 -26.496094 L 27.109375 -21.730469 C 24.753906 -25.113281 20.910156 -27.160156 16.246094 -27.160156 C 8.507812 -27.160156 2.972656 -21.523438 2.972656 -13.734375 C 2.972656 -5.945312 8.507812 -0.308594 16.246094 -0.308594 C 20.757812 -0.308594 24.546875 -2.253906 26.90625 -5.484375 L 26.90625 -1.179688 C 26.90625 4.511719 23.011719 8.097656 16.914062 8.097656 C 12.042969 8.097656 8.457031 5.792969 7.585938 2.101562 L 4.5625 2.101562 C 5.585938 7.480469 10.402344 10.917969 16.914062 10.917969 Z M 5.945312 -13.734375 C 5.945312 -19.9375 10.300781 -24.292969 16.554688 -24.292969 C 22.753906 -24.292969 27.109375 -19.9375 27.109375 -13.734375 C 27.109375 -7.535156 22.753906 -3.230469 16.554688 -3.230469 C 10.300781 -3.230469 5.945312 -7.535156 5.945312 -13.734375 Z M 5.945312 -13.734375" transform="translate(607.167 110.537)"/></g></g></g><g fill="#039E8E"><g><g><path d="M 3.640625 10.25 L 6.148438 10.25 C 10.917969 10.25 12.964844 9.070312 14.8125 4.457031 L 27.46875 -26.496094 L 24.34375 -26.496094 L 18.960938 -13.425781 L 15.167969 -3.996094 L 10.609375 -13.425781 L 4.355469 -26.496094 L 1.023438 -26.496094 L 13.632812 -0.410156 L 12.144531 3.332031 C 10.761719 6.664062 9.582031 7.429688 5.84375 7.429688 L 3.640625 7.429688 Z M 3.640625 10.25" transform="translate(642.323 110.537)"/></g></g></g><g fill="#039E8E"><g><g><path d="M 14.101562 0 L 26.421875 0 L 34.207031 -23.847656 L 41.992188 0 L 54.316406 0 L 68.109375 -42.914062 L 55.113281 -42.914062 L 52.109375 -33.351562 L 47.695312 -19.617188 L 40.09375 -42.914062 L 28.324219 -42.914062 L 25.136719 -33.351562 L 20.78125 -19.984375 L 16.429688 -33.351562 L 13.425781 -42.914062 L 0.304688 -42.914062 Z M 14.101562 0" transform="translate(66.962 193.552)"/></g></g></g><g fill="#039E8E"><g><g><path d="M 20.230469 0.917969 C 28.628906 0.917969 35.066406 -3.25 37.949219 -10.484375 L 26.546875 -10.484375 C 25.257812 -8.949219 22.988281 -7.96875 20.476562 -7.96875 C 17.164062 -7.96875 14.40625 -9.746094 13.546875 -13.304688 L 38.5625 -13.304688 C 39.175781 -25.378906 31.878906 -33.351562 20.292969 -33.351562 C 9.441406 -33.351562 1.902344 -26.359375 1.902344 -16.246094 C 1.902344 -6.070312 9.378906 0.917969 20.230469 0.917969 Z M 13.609375 -19.679688 C 14.589844 -22.804688 17.164062 -24.523438 20.414062 -24.523438 C 23.96875 -24.523438 26.359375 -22.683594 27.34375 -19.679688 Z M 13.609375 -19.679688" transform="translate(135.374 193.552)"/></g></g></g><g fill="#039E8E"><g><g><path d="M 25.011719 0.917969 C 34.820312 0.917969 41.625 -6.070312 41.625 -16.246094 C 41.625 -26.300781 34.820312 -33.351562 25.011719 -33.351562 C 21.519531 -33.351562 18.390625 -32.429688 15.878906 -30.773438 L 15.878906 -45.367188 L 4.109375 -45.367188 L 4.109375 0 L 12.566406 0 L 13.730469 -3.25 C 16.613281 -0.613281 20.476562 0.917969 25.011719 0.917969 Z M 15.449219 -16.246094 C 15.449219 -20.539062 18.390625 -23.601562 22.746094 -23.601562 C 27.097656 -23.601562 30.039062 -20.539062 30.039062 -16.246094 C 30.039062 -11.894531 27.097656 -8.828125 22.746094 -8.828125 C 18.390625 -8.828125 15.449219 -11.894531 15.449219 -16.246094 Z M 15.449219 -16.246094" transform="translate(189.932 193.552)"/></g></g></g><g fill="#039E8E"><g><g><path d="M 16.980469 0.917969 C 21.335938 0.917969 25.074219 -0.613281 27.464844 -3.308594 L 28.691406 0 L 37.089844 0 L 37.089844 -32.429688 L 25.320312 -32.429688 L 25.320312 -15.019531 C 25.320312 -11.035156 23.355469 -8.828125 20.167969 -8.828125 C 17.105469 -8.828125 15.265625 -10.851562 15.265625 -14.652344 L 15.265625 -32.429688 L 3.496094 -32.429688 L 3.496094 -13.425781 C 3.496094 -4.660156 8.707031 0.917969 16.980469 0.917969 Z M 16.980469 0.917969" transform="translate(233.455 193.552)"/></g></g></g><g fill="#039E8E"><g><g><path d="M 4.109375 0 L 15.878906 0 L 15.878906 -32.429688 L 4.109375 -32.429688 Z M 4.109375 -42.363281 C 4.109375 -38.988281 6.558594 -36.597656 9.992188 -36.597656 C 13.488281 -36.597656 15.9375 -38.988281 15.9375 -42.363281 C 15.9375 -45.792969 13.488281 -48.125 9.992188 -48.125 C 6.558594 -48.125 4.109375 -45.792969 4.109375 -42.363281 Z M 4.109375 -42.363281" transform="translate(274.71 193.552)"/></g></g></g><g fill="#039E8E"><g><g><path d="M 4.109375 0 L 15.878906 0 L 15.878906 -45.367188 L 4.109375 -45.367188 Z M 4.109375 0" transform="translate(294.695 193.552)"/></g></g></g><g fill="#039E8E"><g><g><path d="M 18.453125 0.917969 C 23.050781 0.917969 26.914062 -0.613281 29.792969 -3.25 L 30.960938 0 L 39.417969 0 L 39.417969 -45.367188 L 27.648438 -45.367188 L 27.648438 -30.773438 C 25.074219 -32.429688 21.945312 -33.351562 18.453125 -33.351562 C 8.707031 -33.351562 1.902344 -26.300781 1.902344 -16.246094 C 1.902344 -6.070312 8.707031 0.917969 18.453125 0.917969 Z M 13.425781 -16.246094 C 13.425781 -20.539062 16.429688 -23.601562 20.78125 -23.601562 C 25.074219 -23.601562 28.078125 -20.539062 28.078125 -16.246094 C 28.078125 -11.894531 25.074219 -8.828125 20.78125 -8.828125 C 16.429688 -8.828125 13.425781 -11.894531 13.425781 -16.246094 Z M 13.425781 -16.246094" transform="translate(314.679 193.552)"/></g></g></g><g fill="#039E8E"><g><g><path d="M 14.898438 0.734375 C 19.554688 0.734375 23.480469 -0.796875 26.238281 -3.554688 L 27.527344 0 L 35.984375 0 L 35.984375 -18.882812 C 35.984375 -28.140625 30.160156 -33.351562 19.738281 -33.351562 C 10.667969 -33.351562 5.210938 -29.242188 4.230469 -21.761719 L 15.265625 -21.761719 C 15.570312 -23.664062 17.410156 -24.949219 19.800781 -24.949219 C 22.4375 -24.949219 24.523438 -23.417969 24.523438 -21.273438 L 24.523438 -19.433594 L 13.609375 -19.433594 C 6.925781 -19.433594 2.636719 -15.449219 2.636719 -9.503906 C 2.636719 -3.1875 7.417969 0.734375 14.898438 0.734375 Z M 14.160156 -10.054688 C 14.160156 -11.894531 15.753906 -12.996094 18.269531 -12.996094 L 24.644531 -12.996094 C 24.644531 -9.441406 21.945312 -7.050781 18.390625 -7.050781 C 15.878906 -7.050781 14.160156 -8.214844 14.160156 -10.054688 Z M 14.160156 -10.054688" transform="translate(372.363 193.552)"/></g></g></g><g fill="#039E8E"><g><g><path d="M 4.109375 0 L 15.878906 0 L 15.878906 -45.367188 L 4.109375 -45.367188 Z M 4.109375 0" transform="translate(411.84 193.552)"/></g></g></g><g fill="#039E8E"><g><g><path d="M 4.109375 0 L 15.878906 0 L 15.878906 -45.367188 L 4.109375 -45.367188 Z M 4.109375 0" transform="translate(431.825 193.552)"/></g></g></g><g fill="#039E8E"><g><g><path d="M 20.597656 0 L 27.15625 0 L 27.15625 -9.929688 L 23.785156 -9.929688 C 20.351562 -9.929688 18.757812 -11.464844 18.757812 -14.835938 L 18.757812 -23.171875 L 26.730469 -23.171875 L 26.730469 -32.429688 L 18.757812 -32.429688 L 18.757812 -40.953125 L 9.625 -40.953125 L 9.011719 -36.722656 C 8.519531 -33.351562 7.601562 -32.429688 3.921875 -32.429688 L 0.980469 -32.429688 L 0.980469 -23.171875 L 6.988281 -23.171875 L 6.988281 -12.566406 C 6.988281 -4.351562 11.710938 0 20.597656 0 Z M 20.597656 0" transform="translate(66.962 257.302)"/></g></g></g><g fill="#039E8E"><g><g><path d="M 20.230469 0.917969 C 28.628906 0.917969 35.066406 -3.25 37.949219 -10.484375 L 26.546875 -10.484375 C 25.257812 -8.949219 22.988281 -7.96875 20.476562 -7.96875 C 17.164062 -7.96875 14.40625 -9.746094 13.546875 -13.304688 L 38.5625 -13.304688 C 39.175781 -25.378906 31.878906 -33.351562 20.292969 -33.351562 C 9.441406 -33.351562 1.902344 -26.359375 1.902344 -16.246094 C 1.902344 -6.070312 9.378906 0.917969 20.230469 0.917969 Z M 13.609375 -19.679688 C 14.589844 -22.804688 17.164062 -24.523438 20.414062 -24.523438 C 23.96875 -24.523438 26.359375 -22.683594 27.34375 -19.679688 Z M 13.609375 -19.679688" transform="translate(96.51 257.302)"/></g></g></g><g fill="#039E8E"><g><g><path d="M 20.351562 0.917969 C 30.101562 0.917969 37.210938 -4.71875 38.746094 -13.609375 L 27.585938 -13.609375 C 26.421875 -10.667969 23.785156 -8.828125 20.476562 -8.828125 C 16.308594 -8.828125 13.425781 -11.832031 13.425781 -16.246094 C 13.425781 -20.597656 16.308594 -23.601562 20.476562 -23.601562 C 23.542969 -23.601562 26.054688 -22.070312 27.402344 -19.433594 L 38.4375 -19.433594 C 37.027344 -27.894531 29.917969 -33.351562 20.351562 -33.351562 C 9.503906 -33.351562 1.902344 -26.238281 1.902344 -16.246094 C 1.902344 -6.128906 9.441406 0.917969 20.351562 0.917969 Z M 20.351562 0.917969" transform="translate(136.907 257.302)"/></g></g></g><g fill="#039E8E"><g><g><path d="M 4.109375 0 L 15.878906 0 L 15.878906 -17.472656 C 15.878906 -21.394531 17.902344 -23.601562 21.148438 -23.601562 C 24.277344 -23.601562 26.117188 -21.578125 26.117188 -17.777344 L 26.117188 0 L 37.886719 0 L 37.886719 -19.003906 C 37.886719 -27.832031 32.796875 -33.351562 24.582031 -33.351562 C 21.210938 -33.351562 18.144531 -32.367188 15.878906 -30.589844 L 15.878906 -45.367188 L 4.109375 -45.367188 Z M 4.109375 0" transform="translate(177.427 257.302)"/></g></g></g><g fill="#039E8E"><g><g><path d="M 4.109375 0 L 15.878906 0 L 15.878906 -17.472656 C 15.878906 -21.394531 17.902344 -23.601562 21.148438 -23.601562 C 24.277344 -23.601562 26.117188 -21.578125 26.117188 -17.777344 L 26.117188 0 L 37.886719 0 L 37.886719 -19.003906 C 37.886719 -27.769531 32.675781 -33.351562 24.339844 -33.351562 C 19.984375 -33.351562 16.183594 -31.816406 13.792969 -29.121094 L 12.566406 -32.429688 L 4.109375 -32.429688 Z M 4.109375 0" transform="translate(218.805 257.302)"/></g></g></g><g fill="#039E8E"><g><g><path d="M 20.78125 0.917969 C 32 0.917969 39.601562 -6.007812 39.601562 -16.246094 C 39.601562 -26.421875 32 -33.351562 20.78125 -33.351562 C 9.503906 -33.351562 1.902344 -26.421875 1.902344 -16.246094 C 1.902344 -6.007812 9.503906 0.917969 20.78125 0.917969 Z M 13.425781 -16.246094 C 13.425781 -20.539062 16.492188 -23.601562 20.78125 -23.601562 C 25.074219 -23.601562 28.078125 -20.539062 28.078125 -16.246094 C 28.078125 -11.894531 25.074219 -8.828125 20.78125 -8.828125 C 16.492188 -8.828125 13.425781 -11.894531 13.425781 -16.246094 Z M 13.425781 -16.246094" transform="translate(260.183 257.302)"/></g></g></g><g fill="#039E8E"><g><g><path d="M 4.109375 0 L 15.878906 0 L 15.878906 -45.367188 L 4.109375 -45.367188 Z M 4.109375 0" transform="translate(301.683 257.302)"/></g></g></g><g fill="#039E8E"><g><g><path d="M 20.78125 0.917969 C 32 0.917969 39.601562 -6.007812 39.601562 -16.246094 C 39.601562 -26.421875 32 -33.351562 20.78125 -33.351562 C 9.503906 -33.351562 1.902344 -26.421875 1.902344 -16.246094 C 1.902344 -6.007812 9.503906 0.917969 20.78125 0.917969 Z M 13.425781 -16.246094 C 13.425781 -20.539062 16.492188 -23.601562 20.78125 -23.601562 C 25.074219 -23.601562 28.078125 -20.539062 28.078125 -16.246094 C 28.078125 -11.894531 25.074219 -8.828125 20.78125 -8.828125 C 16.492188 -8.828125 13.425781 -11.894531 13.425781 -16.246094 Z M 13.425781 -16.246094" transform="translate(321.667 257.302)"/></g></g></g><g fill="#039E8E"><g><g><path d="M 20.722656 13.976562 C 31.570312 13.976562 38.375 8.398438 38.375 -1.65625 L 38.375 -32.429688 L 29.917969 -32.429688 L 28.691406 -29.058594 C 25.933594 -31.816406 21.945312 -33.351562 17.289062 -33.351562 C 8.214844 -33.351562 1.902344 -26.789062 1.902344 -17.289062 C 1.902344 -7.722656 8.214844 -1.226562 17.289062 -1.226562 C 20.84375 -1.226562 24.03125 -2.144531 26.546875 -3.800781 L 26.546875 -1.410156 C 26.546875 2.882812 24.582031 4.964844 20.476562 4.964844 C 17.347656 4.964844 15.265625 3.738281 14.773438 1.53125 L 3.433594 1.53125 C 4.046875 9.257812 10.667969 13.976562 20.722656 13.976562 Z M 13.425781 -17.289062 C 13.425781 -21.273438 16.246094 -24.09375 20.230469 -24.09375 C 24.214844 -24.09375 26.972656 -21.273438 26.972656 -17.289062 C 26.972656 -13.242188 24.214844 -10.421875 20.230469 -10.421875 C 16.246094 -10.421875 13.425781 -13.242188 13.425781 -17.289062 Z M 13.425781 -17.289062" transform="translate(363.168 257.302)"/></g></g></g><g fill="#039E8E"><g><g><path d="M 4.109375 0 L 15.878906 0 L 15.878906 -32.429688 L 4.109375 -32.429688 Z M 4.109375 -42.363281 C 4.109375 -38.988281 6.558594 -36.597656 9.992188 -36.597656 C 13.488281 -36.597656 15.9375 -38.988281 15.9375 -42.363281 C 15.9375 -45.792969 13.488281 -48.125 9.992188 -48.125 C 6.558594 -48.125 4.109375 -45.792969 4.109375 -42.363281 Z M 4.109375 -42.363281" transform="translate(405.71 257.302)"/></g></g></g><g fill="#039E8E"><g><g><path d="M 20.230469 0.917969 C 28.628906 0.917969 35.066406 -3.25 37.949219 -10.484375 L 26.546875 -10.484375 C 25.257812 -8.949219 22.988281 -7.96875 20.476562 -7.96875 C 17.164062 -7.96875 14.40625 -9.746094 13.546875 -13.304688 L 38.5625 -13.304688 C 39.175781 -25.378906 31.878906 -33.351562 20.292969 -33.351562 C 9.441406 -33.351562 1.902344 -26.359375 1.902344 -16.246094 C 1.902344 -6.070312 9.378906 0.917969 20.230469 0.917969 Z M 13.609375 -19.679688 C 14.589844 -22.804688 17.164062 -24.523438 20.414062 -24.523438 C 23.96875 -24.523438 26.359375 -22.683594 27.34375 -19.679688 Z M 13.609375 -19.679688" transform="translate(425.695 257.302)"/></g></g></g><g fill="#039E8E"><g><g><path d="M 16.921875 0.917969 C 26.117188 0.917969 31.570312 -2.941406 31.570312 -9.441406 C 31.570312 -14.957031 27.769531 -18.332031 19.863281 -19.863281 C 14.957031 -20.78125 13.546875 -21.578125 13.546875 -23.171875 C 13.546875 -24.582031 14.714844 -25.378906 16.429688 -25.378906 C 18.574219 -25.378906 19.800781 -24.277344 19.925781 -22.316406 L 31.082031 -22.316406 C 30.652344 -29.488281 25.625 -33.351562 16.550781 -33.351562 C 7.296875 -33.351562 2.269531 -29.734375 2.269531 -23.171875 C 2.269531 -17.65625 5.824219 -14.46875 13.917969 -12.933594 C 18.207031 -12.078125 19.984375 -11.035156 19.984375 -9.503906 C 19.984375 -8.09375 18.882812 -7.234375 17.042969 -7.234375 C 14.898438 -7.234375 13.488281 -8.582031 13.488281 -10.542969 L 1.960938 -10.542969 C 1.960938 -3.617188 7.847656 0.917969 16.921875 0.917969 Z M 16.921875 0.917969" transform="translate(466.092 257.302)"/></g></g></g><g fill="#039E8E"><g><g><path d="M 12.566406 0 L 23.355469 0 L 26.730469 -9.257812 L 29.609375 -17.164062 L 32.492188 -9.257812 L 35.863281 0 L 46.714844 0 L 58.851562 -32.429688 L 46.46875 -32.429688 L 43.527344 -24.152344 L 40.339844 -15.019531 L 37.089844 -24.152344 L 34.207031 -32.429688 L 25.011719 -32.429688 L 22.070312 -24.152344 L 18.882812 -15.019531 L 15.695312 -24.152344 L 12.75 -32.429688 L 0.304688 -32.429688 Z M 12.566406 0" transform="translate(66.962 321.052)"/></g></g></g><g fill="#039E8E"><g><g><path d="M 4.109375 0 L 15.878906 0 L 15.878906 -32.429688 L 4.109375 -32.429688 Z M 4.109375 -42.363281 C 4.109375 -38.988281 6.558594 -36.597656 9.992188 -36.597656 C 13.488281 -36.597656 15.9375 -38.988281 15.9375 -42.363281 C 15.9375 -45.792969 13.488281 -48.125 9.992188 -48.125 C 6.558594 -48.125 4.109375 -45.792969 4.109375 -42.363281 Z M 4.109375 -42.363281" transform="translate(126.118 321.052)"/></g></g></g><g fill="#039E8E"><g><g><path d="M 20.597656 0 L 27.15625 0 L 27.15625 -9.929688 L 23.785156 -9.929688 C 20.351562 -9.929688 18.757812 -11.464844 18.757812 -14.835938 L 18.757812 -23.171875 L 26.730469 -23.171875 L 26.730469 -32.429688 L 18.757812 -32.429688 L 18.757812 -40.953125 L 9.625 -40.953125 L 9.011719 -36.722656 C 8.519531 -33.351562 7.601562 -32.429688 3.921875 -32.429688 L 0.980469 -32.429688 L 0.980469 -23.171875 L 6.988281 -23.171875 L 6.988281 -12.566406 C 6.988281 -4.351562 11.710938 0 20.597656 0 Z M 20.597656 0" transform="translate(146.102 321.052)"/></g></g></g><g fill="#039E8E"><g><g><path d="M 4.109375 0 L 15.878906 0 L 15.878906 -17.472656 C 15.878906 -21.394531 17.902344 -23.601562 21.148438 -23.601562 C 24.277344 -23.601562 26.117188 -21.578125 26.117188 -17.777344 L 26.117188 0 L 37.886719 0 L 37.886719 -19.003906 C 37.886719 -27.832031 32.796875 -33.351562 24.582031 -33.351562 C 21.210938 -33.351562 18.144531 -32.367188 15.878906 -30.589844 L 15.878906 -45.367188 L 4.109375 -45.367188 Z M 4.109375 0" transform="translate(175.649 321.052)"/></g></g></g><g fill="#039E8E"><g><g><path d="M 4.109375 0 L 15.878906 0 L 15.878906 -13.855469 C 15.878906 -19.371094 18.269531 -21.886719 23.542969 -21.886719 L 27.28125 -21.886719 L 27.28125 -32.429688 L 23.480469 -32.429688 C 18.941406 -32.429688 16.0625 -31.203125 14.039062 -28.382812 L 12.566406 -32.429688 L 4.109375 -32.429688 Z M 4.109375 0" transform="translate(231.187 321.052)"/></g></g></g><g fill="#039E8E"><g><g><path d="M 20.230469 0.917969 C 28.628906 0.917969 35.066406 -3.25 37.949219 -10.484375 L 26.546875 -10.484375 C 25.257812 -8.949219 22.988281 -7.96875 20.476562 -7.96875 C 17.164062 -7.96875 14.40625 -9.746094 13.546875 -13.304688 L 38.5625 -13.304688 C 39.175781 -25.378906 31.878906 -33.351562 20.292969 -33.351562 C 9.441406 -33.351562 1.902344 -26.359375 1.902344 -16.246094 C 1.902344 -6.070312 9.378906 0.917969 20.230469 0.917969 Z M 13.609375 -19.679688 C 14.589844 -22.804688 17.164062 -24.523438 20.414062 -24.523438 C 23.96875 -24.523438 26.359375 -22.683594 27.34375 -19.679688 Z M 13.609375 -19.679688" transform="translate(260.367 321.052)"/></g></g></g><g fill="#039E8E"><g><g><path d="M 4.109375 0 L 15.878906 0 L 15.878906 -17.472656 C 15.878906 -21.394531 17.902344 -23.601562 21.148438 -23.601562 C 24.277344 -23.601562 26.117188 -21.578125 26.117188 -17.777344 L 26.117188 0 L 37.886719 0 L 37.886719 -19.003906 C 37.886719 -27.769531 32.675781 -33.351562 24.339844 -33.351562 C 19.984375 -33.351562 16.183594 -31.816406 13.792969 -29.121094 L 12.566406 -32.429688 L 4.109375 -32.429688 Z M 4.109375 0" transform="translate(300.764 321.052)"/></g></g></g><g fill="#039E8E"><g><g><path d="M 20.230469 0.917969 C 28.628906 0.917969 35.066406 -3.25 37.949219 -10.484375 L 26.546875 -10.484375 C 25.257812 -8.949219 22.988281 -7.96875 20.476562 -7.96875 C 17.164062 -7.96875 14.40625 -9.746094 13.546875 -13.304688 L 38.5625 -13.304688 C 39.175781 -25.378906 31.878906 -33.351562 20.292969 -33.351562 C 9.441406 -33.351562 1.902344 -26.359375 1.902344 -16.246094 C 1.902344 -6.070312 9.378906 0.917969 20.230469 0.917969 Z M 13.609375 -19.679688 C 14.589844 -22.804688 17.164062 -24.523438 20.414062 -24.523438 C 23.96875 -24.523438 26.359375 -22.683594 27.34375 -19.679688 Z M 13.609375 -19.679688" transform="translate(342.142 321.052)"/></g></g></g><g fill="#039E8E"><g><g><path d="M 12.566406 0 L 23.355469 0 L 26.730469 -9.257812 L 29.609375 -17.164062 L 32.492188 -9.257812 L 35.863281 0 L 46.714844 0 L 58.851562 -32.429688 L 46.46875 -32.429688 L 43.527344 -24.152344 L 40.339844 -15.019531 L 37.089844 -24.152344 L 34.207031 -32.429688 L 25.011719 -32.429688 L 22.070312 -24.152344 L 18.882812 -15.019531 L 15.695312 -24.152344 L 12.75 -32.429688 L 0.304688 -32.429688 Z M 12.566406 0" transform="translate(382.539 321.052)"/></g></g></g><g fill="#039E8E"><g><g><path d="M 14.898438 0.734375 C 19.554688 0.734375 23.480469 -0.796875 26.238281 -3.554688 L 27.527344 0 L 35.984375 0 L 35.984375 -18.882812 C 35.984375 -28.140625 30.160156 -33.351562 19.738281 -33.351562 C 10.667969 -33.351562 5.210938 -29.242188 4.230469 -21.761719 L 15.265625 -21.761719 C 15.570312 -23.664062 17.410156 -24.949219 19.800781 -24.949219 C 22.4375 -24.949219 24.523438 -23.417969 24.523438 -21.273438 L 24.523438 -19.433594 L 13.609375 -19.433594 C 6.925781 -19.433594 2.636719 -15.449219 2.636719 -9.503906 C 2.636719 -3.1875 7.417969 0.734375 14.898438 0.734375 Z M 14.160156 -10.054688 C 14.160156 -11.894531 15.753906 -12.996094 18.269531 -12.996094 L 24.644531 -12.996094 C 24.644531 -9.441406 21.945312 -7.050781 18.390625 -7.050781 C 15.878906 -7.050781 14.160156 -8.214844 14.160156 -10.054688 Z M 14.160156 -10.054688" transform="translate(441.694 321.052)"/></g></g></g><g fill="#039E8E"><g><g><path d="M 25.011719 0.917969 C 34.820312 0.917969 41.625 -6.070312 41.625 -16.246094 C 41.625 -26.300781 34.820312 -33.351562 25.011719 -33.351562 C 21.519531 -33.351562 18.390625 -32.429688 15.878906 -30.773438 L 15.878906 -45.367188 L 4.109375 -45.367188 L 4.109375 0 L 12.566406 0 L 13.730469 -3.25 C 16.613281 -0.613281 20.476562 0.917969 25.011719 0.917969 Z M 15.449219 -16.246094 C 15.449219 -20.539062 18.390625 -23.601562 22.746094 -23.601562 C 27.097656 -23.601562 30.039062 -20.539062 30.039062 -16.246094 C 30.039062 -11.894531 27.097656 -8.828125 22.746094 -8.828125 C 18.390625 -8.828125 15.449219 -11.894531 15.449219 -16.246094 Z M 15.449219 -16.246094" transform="translate(481.172 321.052)"/></g></g></g><g fill="#039E8E"><g><g><path d="M 4.109375 0 L 15.878906 0 L 15.878906 -45.367188 L 4.109375 -45.367188 Z M 4.109375 0" transform="translate(524.696 321.052)"/></g></g></g><g fill="#039E8E"><g><g><path d="M 20.230469 0.917969 C 28.628906 0.917969 35.066406 -3.25 37.949219 -10.484375 L 26.546875 -10.484375 C 25.257812 -8.949219 22.988281 -7.96875 20.476562 -7.96875 C 17.164062 -7.96875 14.40625 -9.746094 13.546875 -13.304688 L 38.5625 -13.304688 C 39.175781 -25.378906 31.878906 -33.351562 20.292969 -33.351562 C 9.441406 -33.351562 1.902344 -26.359375 1.902344 -16.246094 C 1.902344 -6.070312 9.378906 0.917969 20.230469 0.917969 Z M 13.609375 -19.679688 C 14.589844 -22.804688 17.164062 -24.523438 20.414062 -24.523438 C 23.96875 -24.523438 26.359375 -22.683594 27.34375 -19.679688 Z M 13.609375 -19.679688" transform="translate(544.68 321.052)"/></g></g></g><g fill="#039E8E"><g><g><path d="M 20.230469 0.917969 C 28.628906 0.917969 35.066406 -3.25 37.949219 -10.484375 L 26.546875 -10.484375 C 25.257812 -8.949219 22.988281 -7.96875 20.476562 -7.96875 C 17.164062 -7.96875 14.40625 -9.746094 13.546875 -13.304688 L 38.5625 -13.304688 C 39.175781 -25.378906 31.878906 -33.351562 20.292969 -33.351562 C 9.441406 -33.351562 1.902344 -26.359375 1.902344 -16.246094 C 1.902344 -6.070312 9.378906 0.917969 20.230469 0.917969 Z M 13.609375 -19.679688 C 14.589844 -22.804688 17.164062 -24.523438 20.414062 -24.523438 C 23.96875 -24.523438 26.359375 -22.683594 27.34375 -19.679688 Z M 13.609375 -19.679688" transform="translate(66.962 384.802)"/></g></g></g><g fill="#039E8E"><g><g><path d="M 4.109375 0 L 15.878906 0 L 15.878906 -17.472656 C 15.878906 -21.394531 17.902344 -23.601562 21.148438 -23.601562 C 24.277344 -23.601562 26.117188 -21.578125 26.117188 -17.777344 L 26.117188 0 L 37.886719 0 L 37.886719 -19.003906 C 37.886719 -27.769531 32.675781 -33.351562 24.339844 -33.351562 C 19.984375 -33.351562 16.183594 -31.816406 13.792969 -29.121094 L 12.566406 -32.429688 L 4.109375 -32.429688 Z M 4.109375 0" transform="translate(107.36 384.802)"/></g></g></g><g fill="#039E8E"><g><g><path d="M 20.230469 0.917969 C 28.628906 0.917969 35.066406 -3.25 37.949219 -10.484375 L 26.546875 -10.484375 C 25.257812 -8.949219 22.988281 -7.96875 20.476562 -7.96875 C 17.164062 -7.96875 14.40625 -9.746094 13.546875 -13.304688 L 38.5625 -13.304688 C 39.175781 -25.378906 31.878906 -33.351562 20.292969 -33.351562 C 9.441406 -33.351562 1.902344 -26.359375 1.902344 -16.246094 C 1.902344 -6.070312 9.378906 0.917969 20.230469 0.917969 Z M 13.609375 -19.679688 C 14.589844 -22.804688 17.164062 -24.523438 20.414062 -24.523438 C 23.96875 -24.523438 26.359375 -22.683594 27.34375 -19.679688 Z M 13.609375 -19.679688" transform="translate(148.738 384.802)"/></g></g></g><g fill="#039E8E"><g><g><path d="M 4.109375 0 L 15.878906 0 L 15.878906 -13.855469 C 15.878906 -19.371094 18.269531 -21.886719 23.542969 -21.886719 L 27.28125 -21.886719 L 27.28125 -32.429688 L 23.480469 -32.429688 C 18.941406 -32.429688 16.0625 -31.203125 14.039062 -28.382812 L 12.566406 -32.429688 L 4.109375 -32.429688 Z M 4.109375 0" transform="translate(189.135 384.802)"/></g></g></g><g fill="#039E8E"><g><g><path d="M 20.722656 13.976562 C 31.570312 13.976562 38.375 8.398438 38.375 -1.65625 L 38.375 -32.429688 L 29.917969 -32.429688 L 28.691406 -29.058594 C 25.933594 -31.816406 21.945312 -33.351562 17.289062 -33.351562 C 8.214844 -33.351562 1.902344 -26.789062 1.902344 -17.289062 C 1.902344 -7.722656 8.214844 -1.226562 17.289062 -1.226562 C 20.84375 -1.226562 24.03125 -2.144531 26.546875 -3.800781 L 26.546875 -1.410156 C 26.546875 2.882812 24.582031 4.964844 20.476562 4.964844 C 17.347656 4.964844 15.265625 3.738281 14.773438 1.53125 L 3.433594 1.53125 C 4.046875 9.257812 10.667969 13.976562 20.722656 13.976562 Z M 13.425781 -17.289062 C 13.425781 -21.273438 16.246094 -24.09375 20.230469 -24.09375 C 24.214844 -24.09375 26.972656 -21.273438 26.972656 -17.289062 C 26.972656 -13.242188 24.214844 -10.421875 20.230469 -10.421875 C 16.246094 -10.421875 13.425781 -13.242188 13.425781 -17.289062 Z M 13.425781 -17.289062" transform="translate(218.314 384.802)"/></g></g></g><g fill="#039E8E"><g><g><path d="M 4.84375 12.261719 L 9.503906 12.261719 C 18.023438 12.261719 21.273438 10.175781 24.09375 3.125 L 38.4375 -32.429688 L 25.808594 -32.429688 L 22.558594 -22.804688 L 20.046875 -15.265625 L 17.042969 -22.804688 L 13.304688 -32.429688 L 0.304688 -32.429688 L 14.40625 -1.101562 C 13.488281 1.53125 12.136719 2.390625 8.828125 2.390625 L 4.84375 2.390625 Z M 4.84375 12.261719" transform="translate(260.857 384.802)"/></g></g></g></svg>